<?xml version="1.0" encoding="utf-8"?>
<!-- Generator: Adobe Illustrator 19.2.0, SVG Export Plug-In . SVG Version: 6.00 Build 0)  -->
<svg version="1.1" id="Layer_1" xmlns="http://www.w3.org/2000/svg" xmlns:xlink="http://www.w3.org/1999/xlink" x="0px" y="0px"
	 viewBox="0 0 372.6 367.1" style="enable-background:new 0 0 372.6 367.1;" xml:space="preserve">
<style type="text/css">
	.st0{fill:none;}
</style>
<g>
	<path d="M110.1,183.5c1.4-27,9.6-53.2,31.8-73.1c18.8-16.9,39.9-18.8,62.5-8c13.6,6.5,24.3,16.5,32.1,29.2
		c18,29.2,25.1,60.4,14.7,93.9c-7.8,25-25.8,38.7-51.9,40.3c-21.6,1.3-41.8-3.5-59.3-16.4C118.4,233.6,110.7,211.1,110.1,183.5z
		 M246.7,197c-0.4-0.1-0.8-0.2-1.2-0.3c-0.3-19.7-5.3-38.1-15.3-55.2c-6.8-11.7-15.7-21.5-27.7-28.2c-21.9-12.3-43.4-8.6-59.5,10.6
		c-17.6,21-24.4,45.6-21.4,72.6c2.5,22.3,13.3,39.9,34.1,50.1c13.9,6.8,28.7,9.9,44,8.8c19.7-1.5,34-11.5,40.6-30.4
		C243.4,216,244.6,206.4,246.7,197z"/>
	<path d="M79.5,253.4c-0.4,0.6-1,2.3-2.2,3.2c-14.5,10.6-29.1,21.1-43.8,31.4c-4.1,2.9-8.4,5.4-12.8,7.8c-2.9,1.6-5.6,0.9-7.3-2
		c-1.6-2.7-0.9-5.1,1.7-6.9c15.5-11,30.9-22,46.4-32.9c3.3-2.3,6.6-4.5,10.2-6.3C75.6,245.8,79.5,248.3,79.5,253.4z"/>
	<path d="M4.3,124.6c23.8,3.9,46.3,6.1,67.5,14.9c3,1.2,4.4,3.2,3.2,6.2c-1.5,3.6-4.3,4.3-8.2,3.2c-10.6-3.2-21.3-6.5-32.1-8.9
		c-9.7-2.1-19.7-3.1-29.6-4.6c-3.2-0.5-5.9-1.9-4.8-5.4C0.9,127.8,3.2,126,4.3,124.6z"/>
	<path d="M284,14c-0.9,2.2-1.2,3.7-2,4.9c-10.5,16.5-21,33-31.7,49.5c-2.3,3.6-6.1,4.3-8.9,2c-3.2-2.6-1.7-5.1,0-7.8
		c10.6-16.5,21.2-33,31.6-49.5c1.6-2.6,3.5-4.4,6.3-3.3C281.2,10.5,282.5,12.6,284,14z"/>
	<path d="M290.2,247.3c0.1-6.2,2.8-7.9,7.2-6c5.8,2.5,11.4,5.4,17,8.2c12.2,6,24.3,12.2,36.5,18.2c3.5,1.7,5.4,4.2,4,7.9
		c-1.5,4.1-4.8,3.5-7.9,2c-10.3-5-20.5-10.2-30.7-15.3c-7.1-3.5-14.3-7-21.3-10.7C292.9,250.3,291.2,248.1,290.2,247.3z"/>
	<path d="M171.6,362.9c0.6-2.2,0.8-3.4,1.1-4.5c5.5-18.1,11.1-36.1,16.6-54.2c1-3.3,2.2-6.2,6.3-5.5c3.4,0.7,5.4,3.1,4.4,6.6
		c-5.9,19.5-11.9,39-18.3,58.4c-0.5,1.6-3.8,3.6-5.5,3.4C174.4,366.9,172.9,364.2,171.6,362.9z"/>
	<path d="M316.2,144.8c-3.3,0-6.7,0.1-10,0c-3.5-0.1-5.2-2.1-5.1-5.5c0.1-3.2,1.9-4.6,5.1-4.9c19.5-1.8,39-3.8,58.5-5.8
		c6.2-0.6,9.2,1.6,7.4,6.2c-0.7,1.9-3.4,3.9-5.4,4.1c-16.8,2.4-33.6,4.3-50.4,6.4C316.2,145.2,316.2,145,316.2,144.8z"/>
	<path d="M138.7,63.7c-1.8-1.5-3.6-2.4-4.6-3.9c-11.4-16.5-19.7-34.5-26.7-53.2c-0.6-1.5,0.8-5,2.3-5.8c3.1-1.7,6.1-0.5,7.7,3
		c2.7,6.4,5.1,13,8.3,19.2c5.5,10.6,11.6,20.8,17.3,31.3c0.9,1.7,1.4,4.2,0.8,5.9C143.2,61.6,140.8,62.4,138.7,63.7z"/>
	<path class="st0" d="M246.7,197c-2.1,9.4-3.2,19-6.4,28c-6.6,18.9-20.8,28.8-40.6,30.4c-15.4,1.2-30.2-2-44-8.8
		c-20.8-10.2-31.6-27.8-34.1-50.1c-3-26.9,3.8-51.5,21.4-72.6c16.1-19.2,37.7-22.9,59.5-10.6c11.9,6.7,20.9,16.5,27.7,28.2
		c9.9,17,15,35.4,15.3,55.2C245.8,196.8,246.2,196.9,246.7,197z M128.4,183.4c0.4,3.9,0.8,10.8,2.1,17.4
		c2.8,14.5,7.9,27.9,20.4,37.1c16.3,12,34.4,14.9,53.9,9.7c12.7-3.4,22.3-11.2,26.8-23.4c3.4-9.2,6.1-19.2,6.3-28.9
		c0.7-25.7-9.7-47.6-27.6-65.7c-27.1-27.5-57.1-13.3-70.7,8C131.3,150.7,128.8,165.3,128.4,183.4z"/>
	<path d="M128.4,183.4c0.4-18.1,2.9-32.7,11.2-45.7c13.6-21.3,43.7-35.5,70.7-8c17.9,18.2,28.3,40,27.6,65.7
		c-0.3,9.7-2.9,19.7-6.3,28.9c-4.5,12.2-14.1,20-26.8,23.4c-19.5,5.2-37.6,2.3-53.9-9.7c-12.5-9.2-17.6-22.6-20.4-37.1
		C129.2,194.2,128.8,187.3,128.4,183.4z M139,183c0.3,2.9,0.6,8.2,1.3,13.4c3.5,25.2,16.5,39.3,41,42.6c22.4,3,39-5.4,44.1-28.6
		c6.6-30-3.4-54.9-25-75.3c-16.3-15.4-36.6-12.8-50,5.3C141.6,152.4,139.2,166.1,139,183z"/>
	<path class="st0" d="M139,183c0.2-16.8,2.5-30.6,11.4-42.5c13.4-18,33.7-20.7,50-5.3c21.6,20.4,31.6,45.2,25,75.3
		c-5.1,23.2-21.7,31.6-44.1,28.6c-24.5-3.3-37.5-17.4-41-42.6C139.6,191.2,139.3,185.8,139,183z"/>
</g>
</svg>
